<svg id="Livello_1" data-name="Livello 1" xmlns="http://www.w3.org/2000/svg" viewBox="0 0 17.8 20">
  <defs>
    <style>.cls-1{fill:#3266ac;}.cls-2{fill:#707173;}.cls-3{fill:#fff;}</style>
  </defs>
  <title>Senza titolo-1</title>
  <path class="cls-1" d="M302.61,424.27c.09,0,.22,0,.18.12s-.07.2-.14.21-.21-.09-.21-.18a.15.15,0,0,1,.16-.15Z" transform="translate(-289.01 -411)"/>
  <path class="cls-1" d="M294.78,426.72a.32.32,0,0,0,.3,0l-.07-.12-.17-.15q-.14-.07-.22.14l.17.13Z" transform="translate(-289.01 -411)"/>
  <path class="cls-2" d="M299.85,430.15s0,.1.05.15.12.06.16,0l-.21-.18Z" transform="translate(-289.01 -411)"/>
  <path class="cls-3" d="M306.7,420.36q.08-.57-.12-.72t-.52.1q-.18-.1-.49.18a.33.33,0,0,0,0-.24.72.72,0,0,0,.36-.28,1.1,1.1,0,0,0,.08-.48,2.41,2.41,0,0,1,.37-.72q.23-.52-.33-.36a.74.74,0,0,0,.31-.48.83.83,0,0,0-.16-.49q-.07-.17-.22-.06a.62.62,0,0,0,.06-.25,2,2,0,0,0-.2-.63q0-.63-.3-.52a1.69,1.69,0,0,0-.21-.63q-.25-.38-.4-.2-.41-.61-.77-.51a.8.8,0,0,0-.18-.48,1.38,1.38,0,0,0-.23-.56q-.19-.07-.26.21a1.74,1.74,0,0,0-.15-.49.41.41,0,0,0-.37-.26.32.32,0,0,0-.18,0,.57.57,0,0,0-.29-.11q-.36-.38-.66-.06l0-.22q-.11-.39-.42-.17a3.23,3.23,0,0,0-.89-.71q-.31-.11-.4.05a.71.71,0,0,0-.34-.2l-.34-.1q-.24,0-.21.26a1,1,0,0,0-.52.13.26.26,0,0,0-.07.31.6.6,0,0,0,.31.33.32.32,0,0,0-.05.23q0,.16.34.26a1,1,0,0,0,.48,0,.23.23,0,0,0,.17.31.67.67,0,0,0,.76.16l0,.2.41.17a.48.48,0,0,0,.28.42l.16.07a.59.59,0,0,0-.19.15s-.12.23.1.28a4,4,0,0,0,.53,0,.59.59,0,0,0,.07.2,1.43,1.43,0,0,0,.23.29,1.63,1.63,0,0,0,.51.33,2.87,2.87,0,0,0-.11.28.62.62,0,0,0,0,.54s-.12.06-.16.12.15.5.2.6a.39.39,0,0,0-.14.07c-.1.07-.06.42.21.48a2.68,2.68,0,0,1,.55.38s.12.2.25.37.14.24.31.25a5.74,5.74,0,0,0,.71,1.43,2.72,2.72,0,0,1,.38.58,1.76,1.76,0,0,0,0,.33,5.14,5.14,0,0,1-.18.94c-.3-.15-.35.05-.39.25,0,0-.14,0-.16,0,0-.12-.18-.22-.27-.16l-.15.11s0-.1,0-.18a1,1,0,0,1,0-.33s.08-.1.12-.18a1.88,1.88,0,0,0-.09-1,.27.27,0,0,0-.16-.18s-.18,0-.21.12c0-.07-.12-.11-.2-.13s-.48.39-.45.8c-.17-.13-.39-.09-.36.14s.53.9.54,1.16c-.15-.13-.48-.13-.48.18a1,1,0,0,0,.11.33c-.07.34.32.58.64.9,0,.15,0,.15.09.21l-.42.66s-.26-.13-.34-.06a1.22,1.22,0,0,0-.2.24l0,.39a.66.66,0,0,1-.26.55,1.66,1.66,0,0,0-.4.56q-.05.19-.41.41a.66.66,0,0,0-.17-.2s0,0-.08,0a14.52,14.52,0,0,0-1.45.7,1.52,1.52,0,0,0-.54.63h-.41a3.16,3.16,0,0,0-.36-.33c-.09-.07-.25-.08-.49,0a.83.83,0,0,0-.66.12.41.41,0,0,1-.3,0l-.52-.57a6,6,0,0,0-1.76-.61.56.56,0,0,0-.23.27,2,2,0,0,1-.48-.4l-.33-.37a.92.92,0,0,1-.3-.76l.05-.33a.15.15,0,0,0,0-.12.6.6,0,0,0-.29-.15s-.06,0-.11.17a5.43,5.43,0,0,1-.34-.48,2.12,2.12,0,0,0,.36-.75,4.33,4.33,0,0,0,.15-1l0-.06a3.72,3.72,0,0,0,.33-1.59c0-.11,0-.17-.08-.17a.12.12,0,0,0-.09,0l.06-.13c0-.09,0-.15,0-.18a.57.57,0,0,0-.38.06,2.33,2.33,0,0,0-.15-.55s-.06,0-.06,0a1.56,1.56,0,0,0-.53,1.06l-.09.08a4,4,0,0,0-.81,1.66,1.87,1.87,0,0,1-.16-.43.76.76,0,0,1-.05-.38.2.2,0,0,0-.05-.28,3,3,0,0,1-.28-1,2.43,2.43,0,0,1,.18-.67,7.87,7.87,0,0,1,.55-1.1.73.73,0,0,1,.16-.15c.37-.09,2-2.2,1.83-3.19a8.15,8.15,0,0,0,.76-1.42l.09,0,.11,0c.35-.14.65-.29.93-.42l.43-.23a3.55,3.55,0,0,0,.85-.52,1.17,1.17,0,0,0,.46-.77q-.07-.1-.43-.11a.71.71,0,0,0,.2-.45q-.14-.19-.83-.06a3.73,3.73,0,0,0-1.26.56,4.54,4.54,0,0,0-1,.85,4.8,4.8,0,0,0-.7,1l.21-.49q.16-.35.34-.82a.51.51,0,0,0,0-.32q0-.1-.21-.05a2,2,0,0,0-.61.45,5,5,0,0,0-.86,1.23,8.4,8.4,0,0,0-.51,1.16,1.93,1.93,0,0,0,0-.82q-.05-.14-.23-.07a1.46,1.46,0,0,0-.34.35l-.33.45a5.55,5.55,0,0,0-.38.62,5.06,5.06,0,0,0-.38,1,7.84,7.84,0,0,0-.25,1.46,4.28,4.28,0,0,0,.08,1.25,4.67,4.67,0,0,0,.34,1q.17.32.32.37.1.23.25.77a1.07,1.07,0,0,1,.07.39.19.19,0,0,0,.07.19.4.4,0,0,1,.13.21,4.45,4.45,0,0,0,.37.94,2.6,2.6,0,0,0,0,.47q-.51-1.47-.83-2.23-.61-1.37-1-1.25a.36.36,0,0,0-.21.31q0,.1,0,.49a7,7,0,0,0,.07.83,5.58,5.58,0,0,0,1.09,2.35l.77.91a1.89,1.89,0,0,0,.45.34.52.52,0,0,0,.39.06,7.28,7.28,0,0,0,.67.89q.25.39.53.37a.37.37,0,0,0,.35.25l.16,0a5.56,5.56,0,0,0,.59.51l-.2.57a8.57,8.57,0,0,1-1,.08l-1.17-.81,0-.64a.91.91,0,0,1,.12-.55q0-.18-.2-.33c-.23-.11-.33-.16-.43-.14s0,.05,0,.12v0s0,0,.05,0c.3.08.43.18.41.3a1,1,0,0,0-.13.53v.55a8.25,8.25,0,0,0-1.21-.66l.17,0a.14.14,0,0,0,.13-.07s0-.07-.12-.07a1,1,0,0,0-.42.05q-.07.08,0,.18a13.41,13.41,0,0,1,1.35.76q.92.58,1.43,1a12.65,12.65,0,0,0,1.4-.14l.91-.17q.56-.11,1.17-.18a5.2,5.2,0,0,1,.56,0,5.5,5.5,0,0,0,.63-.05,3.05,3.05,0,0,1,.34.91q0,.2-.05.22a16.09,16.09,0,0,1-1.81.59l-1,.22q-1.11.2-2.19.33a11.77,11.77,0,0,1-1.59-.82,8.26,8.26,0,0,1-1.3-.91q-.42-.46-.34-.55a3.28,3.28,0,0,0,.37-.81.47.47,0,0,0,0-.23q-.12-.36.17-.37a8,8,0,0,1,1,0c.07,0,.12,0,.14-.06l.16-.32-.1,0-.13.21v.06l-1.07,0a.36.36,0,0,0-.26.11.48.48,0,0,0,0,.42.59.59,0,0,1,0,.2,2.67,2.67,0,0,1-.4.83s0,.12,0,.22a2.48,2.48,0,0,0,.4.47,3.49,3.49,0,0,0,.42.34q.28.2,1,.61a13.93,13.93,0,0,0,1.6.83q.16,0,2.12-.29v.12q-.56.42-.72.35t-.14.33a.36.36,0,0,0,.23.19l.14.16.39.23a.72.72,0,0,0,.42,0,.43.43,0,0,0,.25-.33l0,0,.42-.42.31-.23a.62.62,0,0,0,.47-.25q0-.17.1-.21l.37-.25s.17,0,.46.18a.55.55,0,0,0,.37,0l.28-.16a4.11,4.11,0,0,1,1.3.92.3.3,0,0,0,.12.22.73.73,0,0,0,.4.16l.15.28.15.05a.89.89,0,0,0,.61-.23l.23-.07q.18-.14.16-.28l-.1-.1-.2-.05a4.13,4.13,0,0,1-.77-.49l-.17-.13a28.22,28.22,0,0,0,2.87.32.8.8,0,0,0,.57-.22l2.15-1.53a2.27,2.27,0,0,0,.42-.66A1.28,1.28,0,0,1,306,427a2,2,0,0,1-.15-.47.72.72,0,0,1,0-.32.28.28,0,0,0-.1-.27.34.34,0,0,0-.24-.1,4,4,0,0,0-.76,0c-.13,0-.21,0-.23-.1v-.25q0-.17-.1-.15a1.22,1.22,0,0,0-.56.23.21.21,0,0,0,0,.32.32.32,0,0,1,.12.24,9.37,9.37,0,0,1-.12.94,8,8,0,0,1-1,.75,2.63,2.63,0,0,1-1-.06.9.9,0,0,1-.24-.51,6.65,6.65,0,0,0,.56-.38,2,2,0,0,0,.34-.08q.14,0,.14-.26a.36.36,0,0,0,.2-.23l.61-.74a1.2,1.2,0,0,1,.65-.3,2.56,2.56,0,0,0,1.1-.48c.07-.08.07-.19,0-.33a3.36,3.36,0,0,0,.66-.66.61.61,0,0,0,.08-.56,2,2,0,0,0,.48-.81,1.74,1.74,0,0,0,0-.57,1.37,1.37,0,0,0,.28-.22.36.36,0,0,0,.08-.25.34.34,0,0,0-.12-.26A.65.65,0,0,0,306.7,420.36Zm-9.87-8.46a.65.65,0,0,1-.23.45,4.13,4.13,0,0,1-.91.63c-.37.19-.87.42-1.4.68v-.06a14,14,0,0,1,2-1.31c.16-.1.1-.13-.09-.08s-.44.24-.7.39l-1.24.82v-.13a7.63,7.63,0,0,1,2-1.37A1.13,1.13,0,0,1,296.83,411.9Zm-2.4.25a4.22,4.22,0,0,1,1.38-.74,2.32,2.32,0,0,1,.68-.1q.14,0,.07.16l-.23.31a2.59,2.59,0,0,0-.84.35,8.39,8.39,0,0,0-1.15.82l-.15.1q-.12-.08-.42.07a13.13,13.13,0,0,1,1.7-1.24,2.1,2.1,0,0,0,.54-.33,3.47,3.47,0,0,0-.66.29,13.8,13.8,0,0,0-1.4.95l-.63.56A6.64,6.64,0,0,1,294.43,412.16Zm-.65,1.18q.17-.1.23-.07a.62.62,0,0,1,0,.29,3.76,3.76,0,0,1-.28.78l-.39.76a1.46,1.46,0,0,0-.78.38q.19-.33.46-.75t.84-1.27q.1-.16,0-.08a6.21,6.21,0,0,0-.48.61q-.39.53-1,1.64l-.88,1.36.06-.16.64-1.13.61-1.14A3.93,3.93,0,0,1,293.77,413.33Zm-2.6,2.6a20.8,20.8,0,0,0,1-2,5.27,5.27,0,0,1,.53-.84q.11-.24-.12,0a11.67,11.67,0,0,0-1.21,2l.2-.51a8.15,8.15,0,0,1,.34-.77,5.12,5.12,0,0,1,.56-.95q.28-.35.38-.46.38-.33.45-.31a.13.13,0,0,1,0,.14l-.52,1.34a13.63,13.63,0,0,1-1.34,2.06l-.43.49a1.48,1.48,0,0,0-.14.2l0-.18Zm.29,1.21a5.39,5.39,0,0,0-.34.74H291l.22-.69Zm-.78,1.8.07-.31.06-.31.17,0-.21.57-.15.5Zm0-1.16a5.64,5.64,0,0,1,.2-.87l.08.11Zm-.4,2.11,0-.08a4.08,4.08,0,0,1,.22-1.24Q290.31,419.42,290.23,419.89Zm-.16-.6a10.9,10.9,0,0,1,.57-3.82q.14-.31,0-.1a7.27,7.27,0,0,0-.75,3.25,3.62,3.62,0,0,0,.08,1.09q.11.33.24.39a.15.15,0,0,0,.16,0,.92.92,0,0,0,0,.23.79.79,0,0,1-.41-.43,4.89,4.89,0,0,1-.24-.79,4.65,4.65,0,0,1-.09-1.17,9.55,9.55,0,0,1,.23-1.57,4.94,4.94,0,0,1,1.08-2q.18-.2.22-.1a3.75,3.75,0,0,1,0,.82,4.69,4.69,0,0,1-.21.89q-.41,1.38-.5,1.85T290.08,419.29Zm.31,1v-.17c.27-.29.24-.57.34-.83l.37-1,.43-1a12.74,12.74,0,0,1,1-1.55,1.16,1.16,0,0,1,.66-.47.61.61,0,0,1,0,.43,3,3,0,0,1-.25.69s0,0,0,0a6.8,6.8,0,0,1-1.33,1.83l.73-1.19.35-.64c.13-.24.16-.33.07-.25-.71,1.07-1.14,1.75-1.29,2s-.29.53-.42.77a4.62,4.62,0,0,0-.31.56A1.65,1.65,0,0,1,290.39,420.31Zm2.84.43a6.87,6.87,0,0,1-.21,1.19,5.08,5.08,0,0,0-.05-.78l.1-.26q0-.14-.05,0l-.06.12v-.21l.16-.2Q293.25,420.41,293.23,420.74Zm-.16-.57q.14,0,.05.13l-.2.3a2.49,2.49,0,0,0-.05-.31Zm-.84.5q.22-.88.42-.93a5,5,0,0,1,.19,1.14,7.59,7.59,0,0,1,0,1.5,3,3,0,0,1-.29,1.14l-.14.3q0-.66,0-1.07t0-1.1q0-.68.09-1.55,0-.21,0-.1a14,14,0,0,0-.2,2.26v.6l0,.83-.14-.16A7,7,0,0,1,292,422,7.77,7.77,0,0,1,292.24,420.67Zm-.94,1.78a4.33,4.33,0,0,1,.8-1.62,3.86,3.86,0,0,0-.12.65,8.17,8.17,0,0,0-.72,1.6,4.63,4.63,0,0,0-.11.58A4.46,4.46,0,0,1,291.3,422.44Zm.69.88-.23-.3.17-.42A3.17,3.17,0,0,0,292,423.33Zm2.14,4.38.15-.42.49.32Zm1.17-.21-.79-.48-.73-.49-.14-.18a.14.14,0,0,0-.17,0q-.11,0-.18-.13a.45.45,0,0,1-.58-.13l-.35-.42-.33-.56-.12-.08a.32.32,0,0,1-.22,0,.82.82,0,0,1-.46-.28,6,6,0,0,1-.64-1.09,17.86,17.86,0,0,1-.88-1.85q-.17-.52-.22-.66t0,0a3.62,3.62,0,0,0,.16.59,14,14,0,0,0,.55,1.35q.35.72.69,1.31a6.51,6.51,0,0,1-1.13-1.59,5.53,5.53,0,0,1-.47-1.36,3.57,3.57,0,0,1-.06-.68,2.79,2.79,0,0,1,0-.51q.05-.16.15-.14s.14.1.29.3a6.4,6.4,0,0,1,.62,1.36q.39,1.05.48,1.38t.18.57a5,5,0,0,0,.22.5,1.43,1.43,0,0,0,.38.52c.17.12.29.14.37.06l-.39-.69a.17.17,0,0,0-.12,0h-.11l0,0,0,0,0,0a.21.21,0,0,1,0,0,.48.48,0,0,1,0-.13,5.88,5.88,0,0,1,.14-.66,7.61,7.61,0,0,1,.67-1.56,3.81,3.81,0,0,0-.05.57q-.39.88-.57,1.42t0,.38l.08,0-.06-.15,0-.12.13.22.07-.05.06.1-.06.1.48.69.12-.1.08.1q-.21.21-.17.28a4.82,4.82,0,0,0,.35.56q.32.47.52.26s.1,0,.16,0a.93.93,0,0,1,.21.32v-.24l-.39-.37-.22-.45a7.13,7.13,0,0,1-.39-.6l-.29-.51q-.17-.3-.43-.67l0-.12.34.41a10.67,10.67,0,0,1,.64.89q.19.3.22.14l.06-.2.1.05-.06.41,0,.13c0,.1,0,.16.06.18s.09.08.12.2a1.79,1.79,0,0,0,.33.44,3.58,3.58,0,0,0,.64.56l.55.37q.22.14.21.28l.2,0-.05-.25.13,0a.47.47,0,0,1,.16.23q.28.21.48.34ZM291.82,424l.06-.06.3.5,0,.06Zm.5,1,.12-.15.28.39.16.29.05.16a.69.69,0,0,1-.25-.22l-.17-.22Zm3.69,2.32-.46-.32-.4-.48a.91.91,0,0,0-.24-.21.37.37,0,0,0-.28-.06s-.1.08-.16.21l0,0a.31.31,0,0,1,.13-.22.27.27,0,0,1,.23,0l.51.24.87.33a3.47,3.47,0,0,1,.39.47Zm.28,2.22a8,8,0,0,1-1,.83l-.13,0q.33-.2.93-.66l.18-.2h-.1a5.43,5.43,0,0,1-.46.37,4.44,4.44,0,0,1-.6.36l-.31.15.05.06.23,0c.13.08.19.17.17.25s-.18.12-.34,0l-.25-.14a.81.81,0,0,0-.28-.19l-.11-.08,0-.1.32.14h.1l-.05-.2.38-.24c.1,0,.14-.1.13-.18l0-.19a.83.83,0,0,0,.53-.08,1.61,1.61,0,0,1,.54-.15Q296.46,429.44,296.29,429.58Zm4.43-16.51,0-.24-.2,0a.56.56,0,0,1-.57-.17q-.19,0-.16-.15t0-.17l-.31,0a.58.58,0,0,1-.39-.17q-.06-.11.08-.26a.66.66,0,0,1-.36-.25q-.07-.14.08-.22a1,1,0,0,1,.57,0,.24.24,0,0,1-.05-.24q0-.13.55.14l.21.13a.21.21,0,0,1,.29-.1,2.51,2.51,0,0,1,.46.28,3.46,3.46,0,0,1,.48.47q.22-.15.32.06l0,.25a.44.44,0,0,0-.57,0l-.15-.06a2.1,2.1,0,0,1-.37-.56q-.06-.24-.06,0a1.09,1.09,0,0,0,.25.54,1.57,1.57,0,0,1-.68-.38,4.55,4.55,0,0,1-.33-.39q-.12-.19-.1,0a1.66,1.66,0,0,0,.35.43l-.32-.15a1.85,1.85,0,0,0-.61-.17q-.12,0,0,0a3.45,3.45,0,0,1,.6.2.8.8,0,0,1,.25.16,1.42,1.42,0,0,1-.61.12c-.13,0-.19,0-.18,0l.13,0a1.83,1.83,0,0,0,.77-.08,5.58,5.58,0,0,0,.67.29,1.27,1.27,0,0,0-.46.21q-.08.11.08,0a1,1,0,0,1,.51-.16l.18.07a1.06,1.06,0,0,0,.14.58l-.12,0Zm1.21,1.13c-.4,0-.48,0-.5-.06s0-.09.12-.17l.07-.12c-.23-.11-.44-.23-.45-.52l.19-.07q.13-.15,0-.22t-.13-.39q.12-.25.57,0,.2-.39.49-.23a.32.32,0,0,0-.36.26,1.34,1.34,0,0,0,0,.41,1.09,1.09,0,0,0-.25-.25q-.29-.15-.11,0a3,3,0,0,1,.32.37.7.7,0,0,1-.51.17q-.1,0,0,.05a.55.55,0,0,0,.3,0,1,1,0,0,0,.07.41,1.13,1.13,0,0,0,.26.26A.16.16,0,0,0,301.92,414.2Zm.22.2q0-.13.22-.14t.07-.13a1.09,1.09,0,0,1-.51-.36q-.14-.18,0-.25l.16,0,.07-.1-.1-.37a.36.36,0,0,1,.16-.4.73.73,0,0,1,.56.17q0-.15.2-.09t.34.79l.17.06q.08-.2.14-.2t.17.35a.78.78,0,0,1,.2.63.76.76,0,0,0-.15.45l-.08-.19a2.59,2.59,0,0,1-.06-.67q0-.15,0,0a2.62,2.62,0,0,0,0,.52,5.08,5.08,0,0,0-.61-.67,1.58,1.58,0,0,1,0-.53q0-.25-.05-.12a2.72,2.72,0,0,0,0,.59,5.57,5.57,0,0,1-.57-.71q-.08-.15-.07-.06a3.32,3.32,0,0,0,.42.64l.36.4a3,3,0,0,0-.48-.11,1.16,1.16,0,0,1-.37-.11q-.16,0,0,.07a1.17,1.17,0,0,0,.39.12,2,2,0,0,1,.55.18,1.57,1.57,0,0,1,.37.43l.13.29a2.19,2.19,0,0,0-.66-.22,1.27,1.27,0,0,1-.42-.12q-.28-.12-.06,0a1.22,1.22,0,0,0,.45.14,2.3,2.3,0,0,1,.75.3l0,.06a.28.28,0,0,0-.05.23l.07.21q-.1-.12-.26.11a.23.23,0,0,0,0-.25,1.74,1.74,0,0,0-.72-.48l-.06.12A.81.81,0,0,1,302.15,414.4Zm2.58,5.28-.32-.5a5.42,5.42,0,0,1-.3-.55.62.62,0,0,1,0-.43q.06-.22.11-.34t0,0a1.71,1.71,0,0,0-.18.43l-.21-.6a2.27,2.27,0,0,1,.38-.92q.11-.19,0,0a2.23,2.23,0,0,0-.41.86l-.33-.73a2.05,2.05,0,0,1,.25-.76q.14-.3-.06,0a2.87,2.87,0,0,0-.24.59q-.15-.6-.29-1l-.07,0,0,.12a4.73,4.73,0,0,0,.23.92,1.8,1.8,0,0,0-.46-.3q-.14-.07,0,0a1.91,1.91,0,0,1,.47.36l.23.54a3.19,3.19,0,0,0-.65-.32q-.17,0,0,0a1.53,1.53,0,0,1,.71.46l.21.56q-.12,0-.31-.35a1.6,1.6,0,0,0-.79-.57.2.2,0,0,1-.12-.22q0-.12.24-.1a1,1,0,0,0-.15-.29l-.08-.13q-.17-.35.2-.35-.14-.21-.1-.33a.72.72,0,0,1,.1-.39,1.25,1.25,0,0,0,.1-.25l.37.2a.31.31,0,0,1,.17.29l-.05.33q0,.1.17-.06a.63.63,0,0,1,.22-.22.61.61,0,0,1,.22.19,1.08,1.08,0,0,1-.07.74l-.12.3q.36-.48.58-.46s.07.11,0,.22a1.12,1.12,0,0,0,0,.34.32.32,0,0,1-.12.31.69.69,0,0,0-.2.41q.34-.25.28.1l-.13.46q-.05.33.11.31c.11,0,.17,0,.2,0a.38.38,0,0,1,0,.22.72.72,0,0,0-.08.29.2.2,0,0,0,.06.12s.1,0,.21,0,.16,0,.16.1,0,.22,0,.32a.59.59,0,0,0,.1.3.33.33,0,0,0,.19.14l.1-.12q-.21,0-.2-.28a2.55,2.55,0,0,0,0-.45q-.08-.2-.17-.22a3.53,3.53,0,0,1-.39-1.06h.22q.24.89.39,1c.1,0,.14.1.14.16a1.55,1.55,0,0,0,.05.39q.19-.05.22-.35a.39.39,0,0,0-.16-.42q-.22-.13-.25-.23t.14-.22-.56-.51q-.35-.24-.21-.43t.2,0,.19,0-.12-.21q-.19-.06-.18-.13a2.55,2.55,0,0,1,0-.45.64.64,0,0,0,0-.28q-.12-.17-.45,0a.58.58,0,0,0,0-.35.8.8,0,0,0-.16-.33l-.11-.33q0-.17.19-.23a.72.72,0,0,1,0-.47,2,2,0,0,0,.11-.24q0-.1.19,0a2,2,0,0,1,.51.56q.17-.19.33.14a1.08,1.08,0,0,1,.15.71q.39-.21.28.29a2.39,2.39,0,0,1,.21.55.51.51,0,0,1-.06.37.52.52,0,0,0-.1.26q0,.09.07,0A.53.53,0,0,1,306,417a.82.82,0,0,1,.12.39.38.38,0,0,1-.14.25.53.53,0,0,0-.16.33.08.08,0,0,0,.1.1l.19-.05q.15,0,0,.23a3.62,3.62,0,0,0-.22.47,1,1,0,0,0-.07.31q0,.24-.08.29a3.59,3.59,0,0,0,0-.64,6.65,6.65,0,0,0-.13-.75,1.52,1.52,0,0,0,.23-.5q.07-.21,0-.05a.81.81,0,0,1-.23.39q-.12-.39-.25-1a1.62,1.62,0,0,0,.2-.67q0-.34,0-.05a1.38,1.38,0,0,1-.23.63q-.14-.44-.3-.84a2,2,0,0,0,0-.52q0-.3-.05,0a1.21,1.21,0,0,1-.05.38l-.23-.59-.15-.34q-.07-.17-.05,0l.14.45a1.38,1.38,0,0,0-.3-.26q-.14-.08-.05,0a2.57,2.57,0,0,1,.4.43l.28.7a2,2,0,0,0-.56-.38q-.2-.07,0,.07a3.31,3.31,0,0,1,.68.64l.24.72a2,2,0,0,1-.49-.47q-.13-.13,0,0a3,3,0,0,0,.54.61l.16.65a3.92,3.92,0,0,0-.64-.5q-.17-.11,0,0a1.56,1.56,0,0,1,.81,1.81q0,.2-.3.3l0,.51h-.26Zm.35.5a1.17,1.17,0,0,1,.23,0c-.1.54-.21,1.13-.3,1.49l-.15-.08A9.66,9.66,0,0,0,305.07,420.18Zm-1.88,3-.35-.29q-.27-.23-.17-.42a1.13,1.13,0,0,1-.13-.22.24.24,0,0,1,0-.25q.08-.12.39.11a.56.56,0,0,0,0-.34,3,3,0,0,0-.13-.32,4.4,4.4,0,0,0-.27-.43q-.12-.24-.05-.28s.11,0,.2.08q.26-.29.35-.16a1.1,1.1,0,0,1,.14.41,1.86,1.86,0,0,1,0,.59l0,0,0,0a1.78,1.78,0,0,1-.05.48.32.32,0,0,0,.05.17.63.63,0,0,1,0-.19l.07-.25a1.67,1.67,0,0,0,.06-.22s0,0-.05,0a.13.13,0,0,0,.09-.09.17.17,0,0,0,0-.12,2.05,2.05,0,0,1,0-.33,1.48,1.48,0,0,0-.05-.42,1.32,1.32,0,0,1-.06-.22q0-.08-.13-.09t-.33.23a2,2,0,0,1,.2-.61q.1-.15.21-.09a.32.32,0,0,1,.14.14s.05,0,.1,0,.08-.09.11-.07a.37.37,0,0,1,.09.13.81.81,0,0,1,.07.2,3.29,3.29,0,0,1,0,.39.55.55,0,0,1-.07.38.34.34,0,0,0-.08.23q0,.55.08.55a.3.3,0,0,0,.15-.08.17.17,0,0,1,.16-.06s.07.12.08.31,0,.21.05.06.08-.23.16-.23.09.2,0,.61a4.5,4.5,0,0,0-.59.61.57.57,0,0,1,0-.37,1.69,1.69,0,0,0,.11-.24l.08-.24q.08-.25,0,0l-.11.22-.11.19a5.41,5.41,0,0,0-.14-.6q-.1-.3-.05,0a9.69,9.69,0,0,1,.12,1,2.8,2.8,0,0,0-.37-.33,2,2,0,0,1-.32-.3q-.12-.07,0,0a3.07,3.07,0,0,0,.38.4,2.76,2.76,0,0,1,.3.3.36.36,0,0,1,.06.13l-.22.26a.17.17,0,0,1-.08-.14A.21.21,0,0,0,303.19,423.2Zm-3.8,3.87a1.26,1.26,0,0,1,.33-.26,7.93,7.93,0,0,1,1.2-.52.08.08,0,0,1,.1,0l.08.11-.12.07a.37.37,0,0,1-.27.07.85.85,0,0,0-.37.09.36.36,0,0,0-.25.28.24.24,0,0,1-.12.16l-.42.22-.33,0Zm.9.35h-.05v0l-.12,0-.35,0,.37-.18.09.18,0,0,0-.18a.25.25,0,0,1,.13-.3.52.52,0,0,1,.37-.11c.06,0,.06.1,0,.3a.91.91,0,0,1-.46.32Zm-1.55,1.36-.05-.17-.29.36-.23.15a.38.38,0,0,1-.33.11l-.37-.18.19-.1.05,0q-.05.16.13,0l.33-.32a1.67,1.67,0,0,0-.14-.74,3,3,0,0,0-.25-.57q0-.1-.49,0a.84.84,0,0,1,.65,0l.25.11.14-.06,0,0-.24-.11h.13l.11.1h0l.07.07a3.13,3.13,0,0,1,.61.79.72.72,0,0,1,0,.41C298.9,428.78,298.8,428.85,298.74,428.8Zm2.53,1.53.12,0,0,.05-.28.08a.93.93,0,0,1-.42.21l-.18,0,0-.13a.36.36,0,0,1,.16-.14l.26-.07.25,0Zm-.39-.06c-.19,0-.31.12-.36.12h-.15a2.76,2.76,0,0,0-.49-.45l-.5-.42a1,1,0,0,1,.59.07ZM302.4,428a1.23,1.23,0,0,0,.47,0,6.43,6.43,0,0,0,1.18-.87,7.43,7.43,0,0,1,1.45-.9q.18-.11,0-.15a1.91,1.91,0,0,0-.49,0c-.07.06-.06.1,0,.14a.44.44,0,0,1,.21,0,7.91,7.91,0,0,0-1.19.74,8.2,8.2,0,0,0,.07-.84.59.59,0,0,0-.13-.34c0-.07,0-.13.19-.19l.14,0v.23l-.19-.05,0,.11a.35.35,0,0,0,.23.16l.57,0h.25q.45,0,.43.22a1.38,1.38,0,0,0,0,.39,2.11,2.11,0,0,0,.36.87,1.46,1.46,0,0,1-.28.45l-.55.36q-.71.51-1.93,1.32a13.9,13.9,0,0,1-2.09-.14,14.21,14.21,0,0,1-2-.45l-.17,0,.07-.07a1.08,1.08,0,0,0,.2-.31,1.15,1.15,0,0,0-.06-.36,1.27,1.27,0,0,0-.4-.66v-.06l.16,0a6.71,6.71,0,0,1,1.17.17q.51.13,1.22.23T302.4,428Zm-.79-.28-.89-.16.37-.13q.3.06.34-.13A1,1,0,0,0,301.61,427.77Zm2.22-3.13a.49.49,0,0,0-.14.49,2.12,2.12,0,0,0-.57.47,5.08,5.08,0,0,0-.42.52.57.57,0,0,1-.3.25.4.4,0,0,1-.41-.09l0,.27-.71.43-.35.15a1.21,1.21,0,0,0,.05-.36l.13-.11q.73-.38.85-.7a2.1,2.1,0,0,1,.32-.44,1,1,0,0,0,.24-.43v-.25l0-.26q.17.19.31.08a7.07,7.07,0,0,1,.48-.77,6.66,6.66,0,0,1,.54-.66l.49-.52V423a9.64,9.64,0,0,0-.8,1.07,7.88,7.88,0,0,0-.73,1.29,1,1,0,0,1-.34.42.84.84,0,0,0-.25.18q-.07.14.08.07a.72.72,0,0,1,.23-.16,5.2,5.2,0,0,0,1-1.1v-.37l.12-.2q0,.31.05.34s.1,0,.18-.18.26-.52.55-1.14a.71.71,0,0,0,0,.5q-.25.18-.14.61Zm2.38-2.35a1,1,0,0,1-.17.46q-.43.5-.36.59a.42.42,0,0,1,0,.46,6.15,6.15,0,0,1-.61.64q.11.21-.16.36a4.33,4.33,0,0,1-.68.3A2.14,2.14,0,0,0,305,424a1.32,1.32,0,0,1,.39-.26q.15-.1.05-.08a1.72,1.72,0,0,0-.4.23,3.22,3.22,0,0,0,.29-.87,2.49,2.49,0,0,0,.52-.64q.15-.22,0-.1a2.57,2.57,0,0,1-.49.56,9.55,9.55,0,0,0,.27-1q.05-.33,0-.12l-.11.37a1.08,1.08,0,0,0-.17-.34l.14.45a5.44,5.44,0,0,1-.2.75,3,3,0,0,0-.39-.76q-.22-.28-.07,0a3,3,0,0,1,.4.92,4.2,4.2,0,0,1-.3.85.79.79,0,0,0-.27-.26q-.11-.05,0,.06a1.5,1.5,0,0,1,.22.28,1.91,1.91,0,0,1-.33.54,3.21,3.21,0,0,1-.41.39,1.17,1.17,0,0,0,.17-.87q0-.08.13-.14c.09,0,.12-.07.09-.12a.9.9,0,0,1-.12-.37.38.38,0,0,1,.25,0q.14-.1,0-.27a.88.88,0,0,1-.21-.5q0-.19.25-.14t0-.28l-.18-.24q-.19-.42.16-.31l.28.17q.28.11.27-.37c0-.07.05-.09.16,0s.21,0,.3-.25.16,0,.21.28.07.55.28.53Q306.24,422,306.2,422.29Zm.32-.91a.2.2,0,0,1,0,.18.55.55,0,0,1-.24.12l-.12-.21a.74.74,0,0,0-.17-.49.85.85,0,0,1,.23-.13c.08,0,.06,0,0,0s-.2.13-.27.13h0a2,2,0,0,1,.31-.69c0-.09,0-.11-.06,0a3.57,3.57,0,0,0-.32.53.48.48,0,0,1-.1-.24c0-.13,0-.14-.06,0a1,1,0,0,0,.1.35c-.16.24-.28.33-.37.29q.08-.51.22-1.07.24-.24.42-.16.25-.2.43-.07a.53.53,0,0,1,.08.31.93.93,0,0,1-.11.34q.2,0,.21.16a.79.79,0,0,1-.34.52C306.43,421.26,306.51,421.31,306.52,421.38Z" transform="translate(-289.01 -411)"/>
  <path class="cls-3" d="M291.68,428.14s0,0,.05,0,.19,0,.26-.09a.18.18,0,0,0,0-.28c-.05,0-.05,0-.1,0l-.18.3Zm-1.4-.94c.13.09.2.16.34,0a.18.18,0,0,0,0-.26l-.07,0s0,0,0,0l-.2.3Zm2,1c0-.1,0-.17,0-.24l0,0,.15.09a1,1,0,0,0,.17.09l0,0s-.1,0-.12,0-.08.29-.1.37l-.07.41.3-.25a2.93,2.93,0,0,0,.25-.28c0-.07,0-.1,0-.12v0l.12.09.12.07v0c-.1-.07-.19.06-.28.14l-.6.56,0,0,.17-.87Zm-.77.15a.74.74,0,0,0-.08.2s0,.07.08.12l0,0a1.2,1.2,0,0,0-.18-.11l-.15-.09v0s.1.07.12,0a.5.5,0,0,0,.14-.18l.22-.37a1.07,1.07,0,0,1,.11-.17c0-.07,0-.09-.08-.11l0,0c.05,0,.12.07.17.11l.15.09a.25.25,0,0,1,.12.38.28.28,0,0,1-.43.07s-.07,0-.07,0l-.11.15Zm-.53-.85a1,1,0,0,1,.11-.17c0-.07,0-.09-.08-.12l0,0,.52.33-.13.2,0,0c.09-.15,0-.19-.09-.28l-.08,0s0,0-.07,0l-.2.32c.15.11.22,0,.29,0h0c0,.08-.09.13-.11.17a1,1,0,0,1-.11.17l0,0c.09-.15,0-.19-.09-.26l-.13.22s-.07.1-.06.15a.16.16,0,0,0,.1.14c.12.07.2.09.31,0h0l-.13.22-.6-.4,0,0a.11.11,0,0,0,.12,0l.14-.17.22-.35Zm-.58.33c0,.07,0,.1.06.14l0,0-.08-.07s-.07,0-.1,0l0-.12v-.38c0-.07,0-.07-.05-.12l-.11.15s-.09.15-.11.2,0,.07.08.09l0,0-.15-.09a.45.45,0,0,0-.17-.11l0,0s.07,0,.12,0a.49.49,0,0,0,.14-.17l.24-.37a1.13,1.13,0,0,0,.11-.17s0-.07-.05-.09v0l.2.13a.53.53,0,0,1,.13.09c.13.09.23.2.12.38a.25.25,0,0,1-.36.09v.48Zm6.88.32-.2-.37-.06.4.26,0Zm-3.07.7s0,.12.05.16.07,0,.12,0a.18.18,0,0,0,.11-.24.24.24,0,0,0-.1-.18.4.4,0,0,0-.16,0h0l0,.21Zm0-.28h0s.09,0,.12-.05a.25.25,0,0,0,0-.19c0-.12-.08-.16-.17-.16a.12.12,0,0,1-.07,0v.07l.06.3Zm-.74.39a.59.59,0,0,0,.05.19s.07,0,.12,0,.16-.1.13-.24-.05-.14-.12-.16a.27.27,0,0,0-.19,0h0l0,.19Zm-.05-.26,0,0s.09,0,.12,0a.2.2,0,0,0,0-.17c0-.12-.08-.19-.19-.16a.12.12,0,0,0-.07,0v0l.06.32Zm3.59-.41c0,.07,0,.19,0,.23s.07,0,.12,0v0H297a.3.3,0,0,1-.14,0v0a.15.15,0,0,0,.11-.12c0-.12,0-.21,0-.31l.1-.63h0l.37.72.1.16a.18.18,0,0,0,.12,0v0a.4.4,0,0,0-.16,0l-.19,0v0s.09,0,.07-.1,0-.07,0-.09l-.1-.16-.3.06v0Zm-.44-.6h0l.06.3h0c-.05-.16-.17-.28-.31-.25s-.25.31-.22.54.15.46.39.43.21-.19.2-.38l0,0,.06.35,0-.07a.41.41,0,0,1-.26.15.46.46,0,0,1-.53-.43c0-.3.1-.57.36-.6a.39.39,0,0,1,.28,0v-.07Zm-1,.45s0-.14,0-.19a.15.15,0,0,0-.12,0l0,0a.58.58,0,0,1,.19,0l.19,0v0a.13.13,0,0,0-.09.07.53.53,0,0,0,0,.19l.06.44a.46.46,0,0,0,.05.18s.07,0,.12,0v0h-.19a.47.47,0,0,1-.19,0v0s.09,0,.09-.07,0-.14,0-.19l-.08-.44Zm-.82.16s0-.16,0-.21a.08.08,0,0,0-.12,0l0,0a.48.48,0,0,0,.19,0,.45.45,0,0,0,.19,0l0,0s-.09,0-.12,0,0,.16,0,.21l.06.44c0,.19.08.23.24.2s.12,0,.16-.08a.25.25,0,0,0,0-.19l0,0,0,.28h-.07l-.66.11v0s.09,0,.09-.07a.64.64,0,0,0,0-.21l-.08-.42Zm-.75.14a.43.43,0,0,0-.05-.19s-.07,0-.12,0v0a.52.52,0,0,1,.19,0l.14,0c.14,0,.31,0,.33.18s-.07.21-.16.26a.26.26,0,0,1,.19,0,.37.37,0,0,1,.15.18.29.29,0,0,1-.32.31s-.09,0-.14,0a.68.68,0,0,0-.21.05v0s.09,0,.09-.07,0-.14,0-.19l-.06-.44Zm-.79.14s0-.16,0-.21-.07,0-.12,0v0a.39.39,0,0,0,.16,0,.36.36,0,0,0,.16,0,.25.25,0,0,1,.34.2.22.22,0,0,1-.13.26.43.43,0,0,1,.19,0,.24.24,0,0,1,.12.21.24.24,0,0,1-.09.24.33.33,0,0,1-.21.08.34.34,0,0,0-.16,0l-.24,0v0s.09,0,.12-.07,0-.16,0-.21l-.08-.42Zm8,.12-.07-.43-.19.38.26,0Zm1.6-.11s0-.17,0-.19-.07,0-.12,0v0h.19l.19,0v0s-.1,0-.12,0v.21l0,.43a.64.64,0,0,0,0,.22s.07,0,.12,0v0h-.19a.53.53,0,0,1-.19,0v0s.1,0,.1-.07a.55.55,0,0,0,0-.19l0-.45Zm-.94-.09s0-.17,0-.21a.13.13,0,0,0-.12-.07l0,0,.17,0a.63.63,0,0,0,.21,0l0,0s-.1,0-.12,0,0,.17,0,.21l-.07.46c0,.19,0,.24.14.26s.14,0,.19,0,.1-.1.12-.19h0l-.07.29s0,0,0,0l-.69-.12v0a.17.17,0,0,0,.14,0,.74.74,0,0,1,0-.19l.07-.43Zm-1,.25-.09.22c0,.07.07.07.09.1v0l-.14,0-.14,0,0,0c.07,0,.09,0,.14-.1l.14-.29.29-.57,0,0,.14.81s0,.14,0,.19,0,0,.09.07v0l-.19,0a.49.49,0,0,0-.19,0l0,0s.09,0,.09,0v-.14l0-.17-.33,0,0,0Zm-.09-.49,0,0c0-.14,0-.19-.14-.22s-.14,0-.14,0l-.12.74c0,.12,0,.14.12.19v0a.68.68,0,0,1-.21,0,.64.64,0,0,1-.22,0v0c.14,0,.17,0,.19-.14l.09-.74s0,0-.09,0-.19,0-.21.17l0,0,0-.24.81.14,0,.24Zm-1.21-.16a.53.53,0,0,0,0-.19s0-.07-.09-.07v0a.74.74,0,0,0,.19,0l.21,0,0,0s-.1,0-.12,0,0,.14,0,.19l0,.45a.62.62,0,0,0,0,.19c0,.07,0,.07.09.07v0l-.19,0a.5.5,0,0,1-.19,0v0s.09,0,.12,0a.42.42,0,0,0,0-.19l.07-.45Zm5.74-.72-.36-.24.14.41.21-.17Zm-1.6,1.15-.31-.29.07.41.24-.12Zm1.41-.89a.7.7,0,0,0,.07.24s.1,0,.12,0l0,0-.12.07a.32.32,0,0,0-.1.1l0,0s0-.07,0-.14a2.15,2.15,0,0,1-.09-.31l-.19-.62,0,0,.69.48a.48.48,0,0,0,.14.1.16.16,0,0,0,.14,0v0a.49.49,0,0,0-.14.1l-.14.12,0,0s.07-.07,0-.12l-.1-.07-.14-.1-.26.19,0,0Zm-1.19.17a.14.14,0,0,0-.17,0l0,0s.07,0,.1-.07a.18.18,0,0,0,.1,0l.93.31-.26-.36s-.09-.14-.14-.19-.1,0-.17,0l0,0,.14-.07a.19.19,0,0,1,.1-.1l0,0s-.07,0,0,.12.12.17.17.24l.38.53,0,0a.33.33,0,0,1-.14,0l-.86-.29.31.43a1,1,0,0,0,.14.17s.1,0,.14,0v0a.23.23,0,0,1-.12.1.42.42,0,0,0-.12.1l0,0s.07-.07,0-.14a.79.79,0,0,0-.12-.17l-.33-.48Zm-.44,1a1,1,0,0,0,0,.24s.09,0,.12,0l0,0-.12.07-.12.07,0,0a.13.13,0,0,0,0-.17,1.36,1.36,0,0,0,0-.31l-.12-.65h0l.62.55a.76.76,0,0,0,.14.12s.1,0,.12,0l0,0a106.34,106.34,0,0,1-.33.19l0,0s.1,0,.07-.1,0-.07-.09-.1l-.12-.1-.29.14,0,0Z" transform="translate(-289.01 -411)"/>
  <path class="cls-3" d="M291.37,422l-.16-.5v0l.55-.31a6.84,6.84,0,0,1-.12-.77l-.62-.13v0c0-.13,0-.67,0-.8v0l.62-.13a6.35,6.35,0,0,1,.12-.77l-.3-.17.21,0,.23.13v0a6.21,6.21,0,0,0-.13.84v0l-.61.13c0,.16,0,.54,0,.7l.61.13v0a6.68,6.68,0,0,0,.13.84v0l-.54.31.11.35Zm1.09,1.78.14.19.56-.26,0,0a7.3,7.3,0,0,0,.6.6l0,0-.26.57.56.41.46-.42,0,0a6.16,6.16,0,0,0,.76.38l0,0-.07.62.67.22.3-.54h0a6.27,6.27,0,0,0,.84.13h0l.13.61h.7l.12-.6h0a6.47,6.47,0,0,0,.84-.13h0l.31.54.67-.22-.07-.61,0,0a6.39,6.39,0,0,0,.76-.39l0,0,.46.42.56-.41-.26-.56,0,0a5.61,5.61,0,0,0,.6-.6l0,0,.57.26.41-.56-.42-.46,0,0a6.44,6.44,0,0,0,.38-.76l0,0,.62.07c.06-.16.17-.51.21-.66l-.54-.31v0a6.21,6.21,0,0,0,.13-.84v0l.61-.13c0-.16,0-.54,0-.7l-.61-.12v0a5.28,5.28,0,0,0-.13-.84v0l.54-.31c0-.16-.16-.52-.21-.67l-.62.07,0,0a5.54,5.54,0,0,0-.38-.76l0,0,.42-.46c-.09-.14-.31-.44-.41-.57l-.56.26,0,0a6.15,6.15,0,0,0-.6-.6l0,0,.26-.56-.57-.41-.45.42,0,0a6.16,6.16,0,0,0-.76-.38l0,0,.07-.62-.67-.22-.3.54h0a5.52,5.52,0,0,0-.84-.13h0l-.13-.61h-.7l-.12.61h0a5.29,5.29,0,0,0-.84.13h0l-.31-.54-.66.22.07.62,0,0a5.77,5.77,0,0,0-.75.38l0,0-.46-.42-.27.2,0-.16.23-.16,0,0,.46.42a6,6,0,0,1,.69-.35l-.07-.62,0,0c.13-.05.64-.22.77-.25h0l.31.54a5.41,5.41,0,0,1,.77-.12l.12-.61h.9l.13.61a5.62,5.62,0,0,1,.77.12l.3-.54h0c.14,0,.65.2.77.25l0,0-.07.62a6.25,6.25,0,0,1,.69.35l.45-.42,0,0c.12.07.56.39.66.48l0,0-.26.57a6.23,6.23,0,0,1,.55.55l.56-.26,0,0c.09.1.4.54.48.66l0,0-.42.46a5.69,5.69,0,0,1,.35.69l.62-.07,0,0c0,.12.21.63.25.77v0l-.54.31a5.41,5.41,0,0,1,.12.77l.61.12v0c0,.13,0,.68,0,.81v0l-.61.13a6.27,6.27,0,0,1-.12.77l.54.31v0c0,.14-.2.65-.25.77l0,0-.62-.07a6.51,6.51,0,0,1-.35.69l.42.46,0,0c-.07.11-.39.55-.47.65l0,0-.57-.26a5.73,5.73,0,0,1-.55.55l.26.57,0,0c-.1.08-.54.4-.65.47l0,0-.46-.42a6.58,6.58,0,0,1-.69.35l.07.62,0,0-.77.25h0l-.31-.55a6.53,6.53,0,0,1-.77.12l-.12.61h-.9l-.13-.62a6.46,6.46,0,0,1-.77-.12l-.31.55h0l-.77-.25,0,0,.07-.62a6.34,6.34,0,0,1-.69-.35l-.46.42,0,0-.65-.47,0,0,.26-.57a7.51,7.51,0,0,1-.55-.55l-.57.26,0,0-.15-.2Z" transform="translate(-289.01 -411)"/>
  <path class="cls-3" d="M297.72,424.73a4.92,4.92,0,0,1-2.07-.45l-.09,0,2.16-2.72,2.12,2.74-.09,0A5,5,0,0,1,297.72,424.73Zm-1.92-.55a4.76,4.76,0,0,0,1.92.4,4.85,4.85,0,0,0,1.88-.38l-1.88-2.44Zm5.49-1-1.92-2.9,3.27-1.16v.1a5,5,0,0,1-1.29,3.9Zm-1.69-2.82,1.71,2.58a4.8,4.8,0,0,0,1.19-3.61Zm-5.48,2.78-.06-.07a5,5,0,0,1-1.24-3.91v-.1l3.26,1.21ZM293,419.31a4.82,4.82,0,0,0,1.15,3.62l1.74-2.54Zm5.8-.92-.1-3.47.09,0a4.94,4.94,0,0,1,3.31,2.43l0,.08Zm.06-3.28.09,3.08,3-.83A4.79,4.79,0,0,0,298.81,415.1Zm-2.09,3.28-3.32-1,0-.08a5,5,0,0,1,3.33-2.39l.09,0Zm-3.1-1.07,3,.87.13-3.09A4.8,4.8,0,0,0,293.62,417.31Z" transform="translate(-289.01 -411)"/>
  <path class="cls-3" d="M297.73,415.28l-1,3,0,0h0l-3.17.08,2.52,1.92,0,0v0l-.91,3,2.6-1.8,0,0,0,0,2.61,1.8-.91-3v0l0,0,2.52-1.93-3.16-.07h0l0,0-1.06-3Zm-1.16,2.89,1.1-3.13.07-.19.07.19,1.11,3.14,3.31.08h.2l-.16.12-2.64,2,1,3.18.06.2-.17-.12-2.73-1.89L295,423.66l-.17.12.06-.2,1-3.19-2.64-2-.16-.12h.2l3.32-.08Z" transform="translate(-289.01 -411)"/>
  <polygon class="cls-3" points="2.88 13.82 2.88 13.82 2.88 13.82 2.88 13.82"/>
  <polygon class="cls-3" points="2.59 13.24 2.88 13.82 2.88 13.82 2.59 13.24"/>
</svg>