<svg id="Livello_1" data-name="Livello 1" xmlns="http://www.w3.org/2000/svg" viewBox="0 0 513.87 134.7">
  <defs>
    <style>.cls-1{fill:#fff;}</style>
  </defs>
  <title>Senza titolo-1</title>
  <path class="cls-1" d="M-30.85,395.66a4.17,4.17,0,0,1,.64-.1c5.55.07,11.11,0,16.64.32A19.41,19.41,0,0,1-6.85,398c3.43,1.63,5.28,4.68,6.35,8.23C.36,409.13,1.26,412,2.19,415L4,414.76l-1.1-21.82H-52.73v2.66h9.63v71.73h-9.63v2.5H-21v-2.61h-9.86V432.14c3.66.13,7.22.08,10.74.46A8,8,0,0,1-13.93,436a13.42,13.42,0,0,1,1.9,6.07c.16,1.49.25,3,.38,4.49h2V415H-11.6c-.23,2.39-.29,4.71-.72,7-.9,4.81-1.92,5.88-6.07,6.87s-8.14.8-12.24.65c-.07,0-.13-.08-.23-.16Zm80.48.57c-.73-.39-1.37-.7-2-1.06a22.9,22.9,0,0,0-15.38-3.31A20.36,20.36,0,0,0,19,399.77c-4,5-5.35,10.83-4.65,17.21A18.32,18.32,0,0,0,18,426.74,15.31,15.31,0,0,0,25.07,432c6.54,2.17,13.18,4,19.66,6.35a12.51,12.51,0,0,1,8.15,8.27,15.55,15.55,0,0,1,.4,7.18c-.87,5.41-3.54,9.57-8.51,12a17.64,17.64,0,0,1-10.08,1.49,19,19,0,0,1-13.83-8.07,29.26,29.26,0,0,1-4.52-10.77c-.19-.83-.37-1.67-.54-2.47H12.37c.11,1.56.28,3,.31,4.47.11,5.15.15,10.3.27,15.45,0,1.33.22,2.66.33,3.92,1.79.45,3,0,3.82-1.64a38.39,38.39,0,0,1,2.71-4.06c.53.37.89.67,1.29.92a74.91,74.91,0,0,0,8,4.72A19.56,19.56,0,0,0,39.32,471a23.22,23.22,0,0,0,8-2.11c5.16-2.57,8.47-6.88,10.51-12.12a32.73,32.73,0,0,0,1.69-18.49c-1.3-6.54-5.1-11.17-11.53-13.37-3.14-1.08-6.36-2-9.5-3-3.82-1.3-7.77-2.37-11.37-4.15-7.68-3.79-8.38-13-2.89-18.37,5.19-5.11,12.18-5.78,18.53-2.91,5,2.28,7.72,6.52,9.29,11.6.42,1.34.71,2.71,1,3.93h3.29a10.1,10.1,0,0,0,.07-1.08c-.15-3.14-.35-6.27-.47-9.41s-.17-6.13-.26-9.2a2.58,2.58,0,0,0-.17-.58h-2Zm74.16,51.88c-.17.39-.33.7-.46,1a46.28,46.28,0,0,1-5.75,10.91c-2.87,3.84-6.43,6.7-11.17,7.83a20.21,20.21,0,0,1-7.2.37A17,17,0,0,1,89.34,464c-2.63-2.43-3.91-5.64-4.81-9a50.84,50.84,0,0,1-1.69-14.26c.17-8.34-.47-16.69.48-25a36.85,36.85,0,0,1,2.63-10.8c1.73-3.92,4.31-7.06,8.35-8.75A19.77,19.77,0,0,1,104.94,395c7.69,1.1,12.82,5.48,16,12.38.85,1.86,1.42,3.85,2.11,5.76h2.45V392.92h-2.05l-3.51,5c-.89-.55-1.63-1.08-2.44-1.48A68.31,68.31,0,0,0,110,392.9c-4.13-1.44-8.42-1.19-12.72-.56-8.61,1.27-15.32,5.71-20.61,12.38A41.21,41.21,0,0,0,68,428a49.16,49.16,0,0,0,.9,14.73,41.17,41.17,0,0,0,10.84,19.63,28.42,28.42,0,0,0,9,6.27,29.83,29.83,0,0,0,26.81-1.36c1.42-.76,2.8-1.6,4.23-2.42l3.84,5.1c.47,0,.75,0,1,0s.53-.06,1-.11V448.11Zm288.15-1.53-.15-2.22h-4.48l-.06.41,1.83.37v18.4l-2,.28c.77.73,5.75.83,6.89,0l-2.1-.34v-9.06c2.29,3,5.16,2.44,6.82.77a7.08,7.08,0,0,0,1.28-8.13C418.24,443.69,414.3,443,411.94,446.58Zm14.38,16.94v-9.08c2.2,2.87,5,2.48,6.73.85a7.07,7.07,0,0,0,1.41-8.11c-1.1-2.12-2.8-3.34-4.83-2.89a13.77,13.77,0,0,0-3.34,1.77l-.11-1.68H421.7l0,.39,1.82.38v18.37l-1.82.34.09.37h6.64l0-.4Zm-143-9.16c1.65,2.29,4,2.78,6.1,1.39,3.22-2.12,3.67-7.35.88-10.13a4.11,4.11,0,0,0-6.5.3l-.49.56-.13-2.13c-2.59-.37-4.14-.2-4.49.53l1.77.21v18.44l-1.82.31,0,.55q3.19.11,6.4,0c.12,0,.23-.31.43-.6l-2.18-.21Zm-27.73.95V435.94c-2.7-.35-4.51-.2-5.06.54l2.31.2v9.59a4.39,4.39,0,0,0-6.85-.73,7.11,7.11,0,0,0-1.32,7.84c1.51,3.35,5.92,4.39,7.75,1.44a2.65,2.65,0,0,1,.49-.44l.12,1.74h4.49l.06-.41Zm-47.54.29-2.68-.18v-9.18c1.34.22,2.79.07,3.65.72s1.1,2.07,1.6,3.12v-8c-.48,1-.74,2.44-1.59,3s-2.38.46-3.67.64v-9.41a44.57,44.57,0,0,1,5.74.71c2.14.54,2.23,2.79,3,4.48l.37-.09-.28-5.67c-4.86,0-9.52,0-14.19,0-.18,0-.36.25-.54.38l.09.29,2.5.17v18.68l-2.56.37.08.35C201.06,456.52,207.25,456.33,208,455.59Zm154-18.71c-.28-.12-.58-.22-.86-.35-3.78-1.71-7.29-.12-8.29,3.88-.57,2.3.14,5.29,3.21,6.15,1.45.41,2.88.86,4.3,1.35a3.52,3.52,0,0,1,2.4,2.14,4.27,4.27,0,0,1-1.95,5.22c-1.89,1-4.94.4-6-1.32a39.07,39.07,0,0,1-1.91-3.89h-.72l.33,6.14.59.39.86-1.95a16,16,0,0,0,2,1.19,5.74,5.74,0,0,0,6.08-.33,6,6,0,0,0,2.67-4.81c.29-2.88-.14-5.39-3.79-6.47-1.37-.4-2.74-.8-4.08-1.26a3.2,3.2,0,0,1-2.38-3.06,3.34,3.34,0,0,1,2.41-3.06,4.52,4.52,0,0,1,5.93,3.23,3.58,3.58,0,0,0,.63.9l.45-.21-.36-5.16Zm-101.9,34.87a8.44,8.44,0,0,0-11.82,2.63,11.45,11.45,0,0,0-.19,12.61,7.42,7.42,0,0,0,7.18,4,29.78,29.78,0,0,0,5-1.28l1.2,1.34.33-6-.51-.23c-.1.21-.2.42-.31.63-.47.87-.88,1.78-1.44,2.6a4.89,4.89,0,0,1-5,2.14,4.1,4.1,0,0,1-3.79-3.26,29.56,29.56,0,0,1-.07-11.94,4.31,4.31,0,0,1,2.13-3.27,5.52,5.52,0,0,1,7.62,2.62c.21.45.44.88.65,1.32l.29-.13v-5.5Zm64.1,18.12c0-1.79-.11-3.63,0-5.45a12.76,12.76,0,0,1,.9-3.51,2.36,2.36,0,0,1,2.67-1.34,1.7,1.7,0,0,1,1.52,1.85c.11,2.82,0,5.65,0,8.45l-1.88.41.1.38H334l.06-.39-1.84-.39a3.15,3.15,0,0,1-.07-.42c0-2.12,0-4.24,0-6.36,0-3.39-2-5-5.26-4.12a18.48,18.48,0,0,0-2.6,1.13l-.14-1.21h-4.46l-.07.42,1.93.41v10c-.63.63-1.64-.16-1.92.94h6.47l.06-.4Zm-81.21-33.77.1-.39-1.93-.39c0-2.43,0-4.83,0-7.22s-1.44-4-3.84-3.82a21.28,21.28,0,0,0-4,1.09l-.14-1h-4.47l0,.39,1.81.34v10.27l-1.9.25c.69.73,5.39.86,6.64.06l-1.92-.39c0-2-.12-4,0-5.89a7,7,0,0,1,1.06-3.32,3.84,3.84,0,0,1,2.46-1.06c.94-.13,1.38.72,1.48,1.55.13,1.14.16,2.3.18,3.45,0,1.78,0,3.57,0,5.3l-1.9.35,0,.39Zm159.39-10.93c0,2.19,0,4.38,0,6.56a6.43,6.43,0,0,1-.49,2.07,3.21,3.21,0,0,1-3.46,1.92c-1-.24-1.48-1-1.48-2.78s0-3.68,0-5.51v-3h-4.56l0,.38,1.92.41q0,.7,0,1.41c0,2,0,4.08,0,6.11a3.54,3.54,0,0,0,3.77,3.83,5.58,5.58,0,0,0,4.26-1.53l.22,1.1H407l0-.39-2-.38V444.38h-4.53l-.05.39Zm-165.21,45.3a10.75,10.75,0,0,1-.3-1.64c0-2.16,0-4.32,0-6.47a3.38,3.38,0,0,0-2.12-3.28,6.78,6.78,0,0,0-6.11,1,2.47,2.47,0,0,0-.86,1.78c0,.51.66,1,1.12,1.62.62-.48,1.32-.76,1.34-1.1a6.13,6.13,0,0,0-.49-1.93c1.07-.85,2.76-1.18,3.5-.56,1.41,1.2.84,2.82.87,4.3-.9.14-1.68.23-2.46.38a16.43,16.43,0,0,0-2.3.53,3.45,3.45,0,0,0-2.38,3.21,2.8,2.8,0,0,0,2.17,2.66,3.7,3.7,0,0,0,3.68-.76c.42-.38.83-.79,1.28-1.22.85,1.87,1.39,2.26,2.75,2.11,1.09-.12,1.51-.44,1.7-1.45Zm-9.44-40.06a6,6,0,0,0-5.87-6.19,6.15,6.15,0,1,0-.29,12.3A6.19,6.19,0,0,0,227.79,450.41Zm43,0a6,6,0,0,0-5.91-6.15,6.15,6.15,0,1,0-.09,12.3A6.23,6.23,0,0,0,270.75,450.37Zm60.19,0a6.25,6.25,0,0,0,6.24,6.17,6.15,6.15,0,0,0,6-6.21,6,6,0,0,0-6.11-6.07A6.25,6.25,0,0,0,330.93,450.33Zm118.14,0a6,6,0,0,0-6-6.1,6.15,6.15,0,1,0-.12,12.3A6.22,6.22,0,0,0,449.07,450.32ZM263.25,484.87a6.3,6.3,0,0,0,6.47,6.21c3,0,6-3.28,5.87-6.32a6.12,6.12,0,0,0-6-6A6.26,6.26,0,0,0,263.25,484.87Zm55.5,0a6,6,0,0,0-5.95-6.11,6.15,6.15,0,1,0,0,12.3A6.25,6.25,0,0,0,318.75,484.89ZM323.08,436l0,.46,2,.18v18.69l-2.25.34c1,.72,6.36.73,7.42,0l-2.41-.37v-19.5C326.15,435.91,324.59,435.59,323.08,436Zm64.18.64v18.7l-2.21.3c.65.58,5.09.87,6.64.56.19,0,.34-.27.73-.6l-2.42-.25V436c-2.21-.43-4.38-.24-4.81.49ZM224,470.52h-4.81l-.07.43,2.06.33V490l-2.13.23c.77.87,6.46.85,7.12,0l-2.17-.28Zm80.81-21.19c-.59-4.42-3.48-5.58-6.4-5a5.88,5.88,0,0,0-4.64,5.62,6.42,6.42,0,0,0,4.6,6.46,5,5,0,0,0,6.1-4.59l-.86,1.14a10.5,10.5,0,0,1-1.48,2c-1.61,1.33-4.61,1.3-5.09-1.55a25.36,25.36,0,0,1,0-4ZM210.9,483.85c-.43-4.16-3.28-5.55-6.32-5a5.93,5.93,0,0,0-4.69,5.59,6.44,6.44,0,0,0,4.67,6.53c3.08.75,6.08-1.87,6-4.49a9.61,9.61,0,0,0-.82.84,13.61,13.61,0,0,1-1.5,2.09c-1.4,1.28-4.55,1.5-5.1-1.46a23.51,23.51,0,0,1,0-4.13Zm77.29,0c-.39-4-3.32-5.72-6.56-4.86a5.84,5.84,0,0,0-4.46,5.5,6.4,6.4,0,0,0,4.47,6.42c3,1,6.31-1.7,6.24-4.39a10.69,10.69,0,0,0-.82.86,13,13,0,0,1-1.51,2.09c-1.45,1.3-4.57,1.39-5.06-1.37a25.26,25.26,0,0,1,0-4.24Zm57.63,3.06-.28-.26c-.22.25-.46.48-.65.74a14.24,14.24,0,0,1-1.53,2.07,3.27,3.27,0,0,1-3.23.71,2.53,2.53,0,0,1-1.89-2.36c-.12-1.26,0-2.53,0-4H346c-.59-5.25-5.52-6.05-8.39-4a6.16,6.16,0,0,0-1.38,8.82,5.19,5.19,0,0,0,5.45,2.39A5,5,0,0,0,345.82,486.9Zm-35.54-42.54h-4.48l-.06.4,1.83.39v10.14c-.55.51-1.54-.23-1.81.8,2.19.51,6.14.25,6.46-.48l-1.86-.21c0-3.47-.46-7,1.93-10.17.78,1.09.86,2.67,2.7,2l1.13-1.52c-.66-.54-1.16-1.27-1.8-1.41-1.84-.42-2.88.87-3.92,2.37Zm56.54.88,4.65,11.69a7.3,7.3,0,0,0,1.25-1.23,14.19,14.19,0,0,0,.73-1.88l3.3-8.54,1.29-.68-.15-.26h-4.18l-.06.46,2.3.31L372.91,453l-3.05-7.77c.62-.53,1.54.24,2-.87h-6.28l-.09.33ZM290.62,490c.77.31,1.41.63,2.08.85a4.25,4.25,0,0,0,5.31-2.77c.65-1.93-.55-3.85-2.88-4.59-1-.32-2-.59-3.06-.91-.8-.26-1.43-.69-1.38-1.64a3.26,3.26,0,0,1,5.77.66c.09.31.39.55.78,1.08v-4.13l-.9.95c-.64-.23-1.26-.48-1.89-.66a4.05,4.05,0,0,0-4.07,1.32c-1.65,2.38-.54,5,2.43,5.81a15.48,15.48,0,0,1,2.73.79c.53.25,1.21.89,1.22,1.36a2.31,2.31,0,0,1-1,1.66c-2,1.2-4.36,0-5.27-2.4l-.45-1.19-.24.09V491Zm92.14-34.66v-11h-4.5l0,.39,1.82.36v10.22l-2,.29c.91.87,6.12.79,6.66-.06Zm-79.4,23.52h-4.52l-.06.42,1.83.4v10.16l-1.85.4.1.4h6.39l.08-.41-2-.41Zm78.71-42.32h-1.46l-1.13,1.24,1,2.09h1.27L383,439v-1.4ZM303.6,472.14l-.95-1h-1.41L300,472.32l1.07,2.15h1.45l1.09-1Z" transform="translate(64.8 -373.2)"/>
  <path class="cls-1" d="M-64.8,499.44l5.05-4a5.34,5.34,0,0,1,4.64-.79c6.21,1.18,12.42,2.32,18.66,3.32,5.25.84,10.54,1.53,15.82,2.13,4,.46,8.08.72,12.13,1,4.45.3,8.9.62,13.36.71,8.67.17,17.34.27,26,.22,4.41,0,8.83-.37,13.24-.71,4.87-.38,9.74-.87,14.6-1.41,5.33-.59,10.67-1.15,16-2,6-.94,12-2.1,17.93-3.28a154.16,154.16,0,0,0,21.66-5.77A86,86,0,0,0,139.58,475a179.15,179.15,0,0,0,17.72-16.4c3.76-3.94,7.3-8.1,10.84-12.24s7-8.56,10.62-12.74,7.06-8.23,10.89-12.05a107.52,107.52,0,0,1,20.89-16.22c4.61-2.75,9.32-5.36,14.13-7.77a107.74,107.74,0,0,1,20.53-7.81q11.29-3,22.73-5.39c5-1,10.12-1.62,15.19-2.3q7.09-.95,14.21-1.65c3.44-.34,6.91-.49,10.36-.75,4-.3,8-.64,12-.94,1.43-.11,2.86-.18,4.29-.25,3.3-.17,6.6-.3,9.9-.49,3.65-.21,7.3-.44,11-.72,5-.38,9.91-.73,14.85-1.22,5.57-.56,11.13-1.24,16.7-1.91,1.93-.23,3.84-.61,5.77-.89a12.63,12.63,0,0,1,1.52,0,11.35,11.35,0,0,1-1,1.45,16,16,0,0,1-10.11,4.81c-5.3.5-10.57,1.31-15.86,1.89-4.38.48-8.78.84-13.18,1.19-4.68.37-9.36.66-14,1-3.81.25-7.62.47-11.43.72-4.84.32-9.68.62-14.52,1-4,.29-7.93.58-11.89,1-5.1.5-10.2,1-15.29,1.66-4.57.56-9.16,1.07-13.68,1.94-6.83,1.31-13.65,2.71-20.37,4.45a116.5,116.5,0,0,0-25.56,9.94,77.33,77.33,0,0,0-14.5,9.59c-2.26,2-4.6,3.84-6.65,6-3,3.17-5.86,6.5-8.69,9.84-4,4.67-7.77,9.46-11.75,14.12-2.9,3.39-5.92,6.67-9,9.93-2.67,2.86-5.3,5.78-8.2,8.4-4.93,4.45-10,8.81-15.11,13a122.9,122.9,0,0,1-25.18,15.72,111.93,111.93,0,0,1-26.5,8.66c-7.72,1.5-15.45,2.94-23.21,4.25-4.39.74-8.82,1.22-13.24,1.75s-8.76,1-13.15,1.41c-3.05.27-6.12.29-9.18.52-11.21.85-22.44.43-33.66.41-5.28,0-10.56-.56-15.84-.9-3.25-.21-6.51-.42-9.75-.75s-6.31-.74-9.45-1.16c-4-.54-8-1-11.91-1.7-5.14-.85-10.25-1.82-15.37-2.74-.39-.07-.79-.1-1.18-.14Z" transform="translate(64.8 -373.2)"/>
  <path class="cls-1" d="M-30.85,395.66v33.68c.11.08.17.16.23.16,4.1.15,8.21.3,12.24-.65s5.16-2.06,6.07-6.87c.42-2.25.48-4.56.72-7h1.94v31.54h-2c-.12-1.5-.22-3-.38-4.49a13.42,13.42,0,0,0-1.9-6.07,8,8,0,0,0-6.15-3.41c-3.51-.37-7.07-.32-10.74-.46v35.08H-21v2.61H-52.73v-2.5h9.63V395.6h-9.63v-2.66H2.91L4,414.76,2.19,415c-.93-3-1.83-5.89-2.69-8.76-1.07-3.56-2.92-6.6-6.35-8.23a19.41,19.41,0,0,0-6.72-2.14c-5.53-.37-11.09-.25-16.64-.32A4.17,4.17,0,0,0-30.85,395.66Z" transform="translate(64.8 -373.2)"/>
  <path class="cls-1" d="M49.63,396.23l3.89-4.54h2a2.58,2.58,0,0,1,.17.58c.09,3.07.14,6.14.26,9.2s.32,6.27.47,9.41a10.1,10.1,0,0,1-.07,1.08H53.05c-.31-1.22-.61-2.59-1-3.93-1.57-5.08-4.27-9.32-9.29-11.6-6.34-2.88-13.34-2.2-18.53,2.91-5.49,5.4-4.78,14.58,2.89,18.37,3.6,1.78,7.55,2.84,11.37,4.15,3.15,1.07,6.36,1.95,9.5,3,6.43,2.2,10.23,6.82,11.53,13.37a32.73,32.73,0,0,1-1.69,18.49c-2,5.24-5.35,9.55-10.51,12.12a23.22,23.22,0,0,1-8,2.11,19.56,19.56,0,0,1-10.27-1.21,74.91,74.91,0,0,1-8-4.72c-.4-.24-.77-.54-1.29-.92a38.39,38.39,0,0,0-2.71,4.06c-.84,1.66-2,2.09-3.82,1.64-.11-1.26-.3-2.58-.33-3.92-.11-5.15-.16-10.3-.27-15.45,0-1.46-.2-2.91-.31-4.47h3.42c.17.8.35,1.64.54,2.47a29.26,29.26,0,0,0,4.52,10.77,19,19,0,0,0,13.83,8.07,17.64,17.64,0,0,0,10.08-1.49c5-2.44,7.64-6.6,8.51-12a15.55,15.55,0,0,0-.4-7.18,12.51,12.51,0,0,0-8.15-8.27C38.24,436,31.6,434.16,25.07,432A15.31,15.31,0,0,1,18,426.74,18.32,18.32,0,0,1,14.33,417c-.7-6.38.65-12.19,4.65-17.21a20.36,20.36,0,0,1,13.29-7.91,22.9,22.9,0,0,1,15.38,3.31C48.25,395.54,48.9,395.84,49.63,396.23Z" transform="translate(64.8 -373.2)"/>
  <path class="cls-1" d="M123.79,448.11h1.81v21.73c-.44,0-.7.09-1,.11s-.56,0-1,0l-3.84-5.1c-1.43.82-2.81,1.66-4.23,2.42a29.83,29.83,0,0,1-26.81,1.36,28.42,28.42,0,0,1-9-6.27,41.17,41.17,0,0,1-10.84-19.63A49.16,49.16,0,0,1,68,428a41.21,41.21,0,0,1,8.66-23.27c5.29-6.68,12-11.11,20.61-12.38,4.3-.64,8.59-.88,12.72.56a68.31,68.31,0,0,1,7.51,3.54c.81.4,1.55.93,2.44,1.48l3.51-5h2.05v20.27H123c-.69-1.91-1.27-3.9-2.11-5.76-3.14-6.9-8.28-11.29-16-12.38a19.77,19.77,0,0,0-10.64,1.15c-4,1.69-6.63,4.83-8.35,8.75a36.85,36.85,0,0,0-2.63,10.8c-1,8.32-.31,16.67-.48,25A50.84,50.84,0,0,0,84.52,455c.9,3.37,2.18,6.58,4.81,9a17,17,0,0,0,9.87,4.23,20.21,20.21,0,0,0,7.2-.37c4.74-1.14,8.3-4,11.17-7.83a46.28,46.28,0,0,0,5.75-10.91C123.46,448.81,123.62,448.5,123.79,448.11Z" transform="translate(64.8 -373.2)"/>
  <path class="cls-1" d="M411.94,446.58c2.36-3.54,6.3-2.89,8.08.5a7.08,7.08,0,0,1-1.28,8.13c-1.66,1.67-4.53,2.2-6.82-.77v9.06l2.1.34c-1.14.81-6.12.71-6.89,0l2-.28v-18.4l-1.83-.37.06-.41h4.48Zm4.17,9.08a7.08,7.08,0,0,0,.94-2.22c.13-2.21.07-4.42,0-6.64a1.55,1.55,0,0,0-1.49-1.71,3.51,3.51,0,0,0-2.45,1.06,7.48,7.48,0,0,0-.7,7.37C413.1,455.16,414.06,455.76,416.12,455.66Z" transform="translate(64.8 -373.2)"/>
  <path class="cls-1" d="M426.32,463.52l2.1.31,0,.4h-6.64l-.09-.37,1.82-.34V445.15l-1.82-.38,0-.39h4.49l.11,1.68a13.77,13.77,0,0,1,3.34-1.77c2-.45,3.73.77,4.83,2.89a7.07,7.07,0,0,1-1.41,8.11c-1.71,1.63-4.53,2-6.73-.85Zm4.11-7.85a6.08,6.08,0,0,0,1-2.1c.15-2.24.08-4.5,0-6.75a1.59,1.59,0,0,0-1.58-1.75,3.37,3.37,0,0,0-2.34,1.06,7.51,7.51,0,0,0-.72,7.38C427.5,455.16,428.45,455.76,430.43,455.67Z" transform="translate(64.8 -373.2)"/>
  <path class="cls-1" d="M283.29,454.36v9.19l2.18.21c-.21.3-.31.6-.43.6q-3.2.13-6.4,0l0-.55,1.82-.31V445.09l-1.77-.21c.35-.73,1.9-.9,4.49-.53l.13,2.13.49-.56a4.11,4.11,0,0,1,6.5-.3c2.79,2.78,2.34,8-.88,10.13C287.29,457.14,284.94,456.65,283.29,454.36Zm4.16,1.29a6.47,6.47,0,0,0,1-2.12c.13-2.25.07-4.5,0-6.76a1.56,1.56,0,0,0-1.51-1.7,3.35,3.35,0,0,0-2.37,1,7.43,7.43,0,0,0-.63,7.68C284.65,455.33,285.48,455.77,287.45,455.65Z" transform="translate(64.8 -373.2)"/>
  <path class="cls-1" d="M255.56,455.31l2,.4-.06.41H253l-.12-1.74a2.65,2.65,0,0,0-.49.44c-1.83,2.94-6.23,1.9-7.75-1.44a7.11,7.11,0,0,1,1.32-7.84,4.39,4.39,0,0,1,6.85.73v-9.59l-2.31-.2c.54-.74,2.35-.89,5.06-.54Zm-7.17.31c1.75.27,2.83-.16,3.54-1.25a7.65,7.65,0,0,0-.28-8.2,3.54,3.54,0,0,0-2.43-1.08,1.81,1.81,0,0,0-1.73,1.83,45.83,45.83,0,0,0-.17,5.94A9.38,9.38,0,0,0,248.38,455.62Z" transform="translate(64.8 -373.2)"/>
  <path class="cls-1" d="M208,455.59c-.77.74-7,.93-8.52.47l-.08-.35,2.56-.37V436.67l-2.5-.17-.09-.29c.18-.13.36-.38.54-.38,4.67,0,9.34,0,14.19,0l.28,5.67-.37.09c-.72-1.69-.82-3.94-3-4.48a44.57,44.57,0,0,0-5.74-.71v9.41c1.29-.19,2.76,0,3.67-.64s1.11-2,1.59-3v8c-.5-1.05-.75-2.48-1.6-3.12s-2.31-.49-3.65-.72v9.18Z" transform="translate(64.8 -373.2)"/>
  <path class="cls-1" d="M362.06,436.88l1.51-1.27.36,5.16-.45.21a3.58,3.58,0,0,1-.63-.9,4.52,4.52,0,0,0-5.93-3.23,3.34,3.34,0,0,0-2.41,3.06A3.2,3.2,0,0,0,356.9,443c1.35.46,2.72.86,4.08,1.26,3.65,1.08,4.09,3.59,3.79,6.47a6,6,0,0,1-2.67,4.81,5.74,5.74,0,0,1-6.08.33,16,16,0,0,1-2-1.19l-.86,1.95-.59-.39-.33-6.14h.72a39.07,39.07,0,0,0,1.91,3.89c1.09,1.72,4.14,2.31,6,1.32a4.27,4.27,0,0,0,1.95-5.22,3.52,3.52,0,0,0-2.4-2.14c-1.42-.48-2.85-.94-4.3-1.35-3.07-.87-3.78-3.85-3.21-6.15,1-4,4.51-5.59,8.29-3.88C361.49,436.66,361.78,436.76,362.06,436.88Z" transform="translate(64.8 -373.2)"/>
  <path class="cls-1" d="M260.17,471.75l1.35-1.66v5.5l-.29.13c-.22-.44-.45-.88-.65-1.32a5.52,5.52,0,0,0-7.62-2.62,4.31,4.31,0,0,0-2.13,3.27,29.56,29.56,0,0,0,.07,11.94,4.1,4.1,0,0,0,3.79,3.26,4.89,4.89,0,0,0,5-2.14c.55-.82,1-1.73,1.44-2.6.11-.21.21-.42.31-.63l.51.23-.33,6-1.2-1.34a29.78,29.78,0,0,1-5,1.28,7.42,7.42,0,0,1-7.18-4,11.45,11.45,0,0,1,.19-12.61A8.44,8.44,0,0,1,260.17,471.75Z" transform="translate(64.8 -373.2)"/>
  <path class="cls-1" d="M324.27,489.86l1.92.41-.06.4h-6.47c.28-1.1,1.28-.31,1.92-.94v-10l-1.93-.41.07-.42h4.46l.14,1.21a18.48,18.48,0,0,1,2.6-1.13c3.27-.87,5.26.73,5.26,4.12,0,2.12,0,4.24,0,6.36a3.15,3.15,0,0,0,.07.42l1.84.39-.06.39h-6.39l-.1-.38,1.88-.41c0-2.8.06-5.63,0-8.45a1.7,1.7,0,0,0-1.52-1.85,2.36,2.36,0,0,0-2.67,1.34,12.76,12.76,0,0,0-.9,3.51C324.16,486.23,324.27,488.07,324.27,489.86Z" transform="translate(64.8 -373.2)"/>
  <path class="cls-1" d="M243.05,456.09h-6.38l0-.39,1.9-.35c0-1.73,0-3.52,0-5.3,0-1.15,0-2.3-.18-3.45-.1-.84-.53-1.68-1.48-1.55a3.84,3.84,0,0,0-2.46,1.06,7,7,0,0,0-1.06,3.32c-.16,1.94,0,3.9,0,5.89l1.92.39c-1.25.8-5.94.67-6.64-.06l1.9-.25V445.13l-1.81-.34,0-.39h4.47l.14,1a21.28,21.28,0,0,1,4-1.09c2.4-.18,3.84,1.38,3.84,3.82s0,4.79,0,7.22l1.93.39Z" transform="translate(64.8 -373.2)"/>
  <path class="cls-1" d="M402.44,445.16l-1.91-.39.05-.39h4.53v10.94l2,.38,0,.39h-4.49l-.22-1.1a5.58,5.58,0,0,1-4.26,1.53,3.54,3.54,0,0,1-3.77-3.83c0-2,0-4.08,0-6.11q0-.71,0-1.41l-1.92-.41,0-.38H397v3c0,1.84,0,3.68,0,5.51s.44,2.54,1.48,2.78a3.21,3.21,0,0,0,3.46-1.92,6.43,6.43,0,0,0,.49-2.07C402.48,449.54,402.44,447.35,402.44,445.16Z" transform="translate(64.8 -373.2)"/>
  <path class="cls-1" d="M237.23,490.47l1.38-.85c-.2,1-.61,1.33-1.7,1.45-1.36.15-1.9-.25-2.75-2.11-.45.43-.85.83-1.28,1.22a3.7,3.7,0,0,1-3.68.76,2.8,2.8,0,0,1-2.17-2.66A3.45,3.45,0,0,1,229.4,485a16.43,16.43,0,0,1,2.3-.53c.77-.15,1.55-.24,2.46-.38,0-1.48.54-3.1-.87-4.3-.74-.63-2.43-.29-3.5.56a6.13,6.13,0,0,1,.49,1.93c0,.33-.72.62-1.34,1.1-.46-.62-1.11-1.12-1.12-1.62a2.47,2.47,0,0,1,.86-1.78,6.78,6.78,0,0,1,6.11-1,3.38,3.38,0,0,1,2.12,3.28c0,2.16,0,4.32,0,6.47A10.75,10.75,0,0,0,237.23,490.47Zm-3.11-5.26a4.43,4.43,0,0,0-4,1.22,1.83,1.83,0,0,0,0,2.42,1.79,1.79,0,0,0,2.25.55C233.72,488.86,234.35,487.4,234.12,485.21Z" transform="translate(64.8 -373.2)"/>
  <path class="cls-1" d="M227.79,450.41a6.19,6.19,0,0,1-6.16,6.11,6.15,6.15,0,1,1,.29-12.3A6,6,0,0,1,227.79,450.41Zm-3.31-.06h-.11c0-.84,0-1.68,0-2.52-.1-1.72-1-2.7-2.48-2.82-1.69-.14-2.74.51-2.93,2.36a34.11,34.11,0,0,0,0,6.39,2.27,2.27,0,0,0,2.55,2,2.33,2.33,0,0,0,2.6-2.09C224.33,452.56,224.37,451.45,224.48,450.34Z" transform="translate(64.8 -373.2)"/>
  <path class="cls-1" d="M270.75,450.37a6.23,6.23,0,0,1-6,6.15,6.15,6.15,0,1,1,.09-12.3A6,6,0,0,1,270.75,450.37Zm-3.3-.1h-.12c0-.84,0-1.68,0-2.52A2.67,2.67,0,0,0,265,445a2.44,2.44,0,0,0-2.89,1.52,12.77,12.77,0,0,0,0,7.73,2.67,2.67,0,0,0,5-.42C267.24,452.64,267.33,451.45,267.45,450.27Z" transform="translate(64.8 -373.2)"/>
  <path class="cls-1" d="M330.93,450.33a6.25,6.25,0,0,1,6.18-6.11,6,6,0,0,1,6.11,6.07,6.15,6.15,0,0,1-6,6.21A6.25,6.25,0,0,1,330.93,450.33Zm9,0h-.12c0-.88.05-1.76,0-2.64a2.59,2.59,0,0,0-2.46-2.71c-1.47-.12-2.76.53-2.88,1.86a43.56,43.56,0,0,0,0,7c.1,1.26,1.3,1.92,2.63,1.89a2.32,2.32,0,0,0,2.49-2.07C339.76,452.58,339.8,451.46,339.92,450.36Z" transform="translate(64.8 -373.2)"/>
  <path class="cls-1" d="M449.07,450.32a6.22,6.22,0,0,1-6.08,6.19,6.15,6.15,0,1,1,.12-12.3A6,6,0,0,1,449.07,450.32Zm-3.31,0h-.11c0-.84,0-1.68,0-2.52a2.68,2.68,0,0,0-2.18-2.75,2.49,2.49,0,0,0-3,1.49,12.85,12.85,0,0,0,0,7.72c.39,1.28,1.47,1.57,2.67,1.5a2.25,2.25,0,0,0,2.29-2C445.6,452.59,445.65,451.43,445.76,450.29Z" transform="translate(64.8 -373.2)"/>
  <path class="cls-1" d="M263.25,484.87a6.26,6.26,0,0,1,6.33-6.09,6.12,6.12,0,0,1,6,6c.14,3-2.87,6.35-5.87,6.32A6.3,6.3,0,0,1,263.25,484.87Zm9,0h-.12q0-1.2,0-2.4a2.17,2.17,0,0,0,0-.24,2.68,2.68,0,0,0-2.29-2.65,2.55,2.55,0,0,0-2.93,1.48,13.35,13.35,0,0,0,0,7.73,2.28,2.28,0,0,0,2.77,1.5c1.11-.18,2.06-.67,2.2-2C272,487.15,272.13,486,272.24,484.87Z" transform="translate(64.8 -373.2)"/>
  <path class="cls-1" d="M318.75,484.89a6.25,6.25,0,0,1-6,6.19,6.15,6.15,0,1,1,0-12.3A6,6,0,0,1,318.75,484.89Zm-8.36,4.68.65.34c1.88,1,3.74.23,4-1.84a29,29,0,0,0,.16-6.18,2.35,2.35,0,0,0-2.42-2.34,2.31,2.31,0,0,0-2.73,1.59A12.81,12.81,0,0,0,310.39,489.57Z" transform="translate(64.8 -373.2)"/>
  <path class="cls-1" d="M323.08,436c1.52-.44,3.08-.13,4.77-.19v19.5l2.41.37c-1.06.73-6.39.72-7.42,0l2.25-.34V436.67l-2-.18Z" transform="translate(64.8 -373.2)"/>
  <path class="cls-1" d="M387.25,436.67l-2.07-.18c.43-.73,2.6-.92,4.81-.49v19.39l2.42.25c-.39.33-.54.56-.73.6-1.55.31-6,0-6.64-.56l2.21-.3Z" transform="translate(64.8 -373.2)"/>
  <path class="cls-1" d="M224,470.52v19.4l2.17.28c-.65.85-6.35.87-7.12,0l2.13-.23V471.28l-2.06-.33.07-.43Z" transform="translate(64.8 -373.2)"/>
  <path class="cls-1" d="M304.78,449.33H297a25.36,25.36,0,0,0,0,4c.48,2.85,3.49,2.88,5.09,1.55a10.5,10.5,0,0,0,1.48-2l.86-1.14a5,5,0,0,1-6.1,4.59,6.42,6.42,0,0,1-4.6-6.46,5.88,5.88,0,0,1,4.64-5.62C301.3,443.76,304.19,444.92,304.78,449.33Zm-3.22-.87c.15-1.25.27-2.38-.88-3.1a2.4,2.4,0,0,0-2.81,0c-1,.75-1.06,1.85-.85,3.07Z" transform="translate(64.8 -373.2)"/>
  <path class="cls-1" d="M210.9,483.85h-7.77a23.51,23.51,0,0,0,0,4.13c.55,3,3.71,2.74,5.1,1.46a13.61,13.61,0,0,0,1.5-2.09,9.61,9.61,0,0,1,.82-.84c0,2.62-3,5.24-6,4.49a6.44,6.44,0,0,1-4.67-6.53,5.93,5.93,0,0,1,4.69-5.59C207.61,478.29,210.46,479.69,210.9,483.85Zm-3.17-.82c.15-1.23.27-2.35-.85-3.09a2.39,2.39,0,0,0-2.79,0c-1.07.74-1.16,1.87-.88,3.12Z" transform="translate(64.8 -373.2)"/>
  <path class="cls-1" d="M288.19,483.84h-7.75a25.26,25.26,0,0,0,0,4.24c.49,2.77,3.61,2.67,5.06,1.37a13,13,0,0,0,1.51-2.09,10.69,10.69,0,0,1,.82-.86c.07,2.7-3.21,5.37-6.24,4.39a6.4,6.4,0,0,1-4.47-6.42,5.84,5.84,0,0,1,4.46-5.5C284.87,478.12,287.8,479.87,288.19,483.84ZM285,483c.08-1.25.26-2.39-.89-3.1a2.4,2.4,0,0,0-2.89.06c-1,.77-1,1.86-.78,3Z" transform="translate(64.8 -373.2)"/>
  <path class="cls-1" d="M345.82,486.9a5,5,0,0,1-4.1,4.1,5.19,5.19,0,0,1-5.45-2.39,6.16,6.16,0,0,1,1.38-8.82c2.87-2,7.8-1.23,8.39,4h-7.83c0,1.46-.09,2.74,0,4a2.53,2.53,0,0,0,1.89,2.36,3.27,3.27,0,0,0,3.23-.71,14.24,14.24,0,0,0,1.53-2.07c.2-.26.43-.5.65-.74ZM338.29,483h4.57c.12-1.15.26-2.24-.77-3a2.41,2.41,0,0,0-2.81-.15C338.13,480.57,338.09,481.73,338.29,483Z" transform="translate(64.8 -373.2)"/>
  <path class="cls-1" d="M310.29,444.36l.11,2.3c1-1.5,2.08-2.79,3.92-2.37.64.15,1.14.87,1.8,1.41L315,447.22c-1.84.67-1.92-.92-2.7-2-2.39,3.2-1.89,6.69-1.93,10.17l1.86.21c-.32.73-4.27,1-6.46.48.28-1,1.27-.29,1.81-.8V445.14l-1.83-.39.06-.4Z" transform="translate(64.8 -373.2)"/>
  <path class="cls-1" d="M366.83,445.24l-1.36-.56.09-.33h6.28c-.44,1.11-1.36.33-2,.87l3.05,7.77,3.05-7.87-2.3-.31.06-.46h4.18l.15.26-1.29.68-3.3,8.54a14.19,14.19,0,0,1-.73,1.88,7.3,7.3,0,0,1-1.25,1.23Z" transform="translate(64.8 -373.2)"/>
  <path class="cls-1" d="M290.62,490l-.86.92v-4.63l.24-.09.45,1.19c.91,2.45,3.32,3.6,5.27,2.4a2.31,2.31,0,0,0,1-1.66c0-.47-.69-1.11-1.22-1.36a15.48,15.48,0,0,0-2.73-.79c-3-.78-4.08-3.44-2.43-5.81a4.05,4.05,0,0,1,4.07-1.32c.64.18,1.25.43,1.89.66l.9-.95v4.13c-.39-.53-.69-.78-.78-1.08a3.26,3.26,0,0,0-5.77-.66c-.05.95.58,1.39,1.38,1.64,1,.33,2,.59,3.06.91,2.33.74,3.52,2.66,2.88,4.59a4.25,4.25,0,0,1-5.31,2.77C292,490.68,291.39,490.36,290.62,490Z" transform="translate(64.8 -373.2)"/>
  <path class="cls-1" d="M382.77,455.39l2,.21c-.55.85-5.75.93-6.66.06l2-.29V445.15l-1.82-.36,0-.39h4.5Z" transform="translate(64.8 -373.2)"/>
  <path class="cls-1" d="M303.36,478.91v11l2,.41-.08.41h-6.39l-.1-.4,1.85-.4V479.72l-1.83-.4.06-.42Z" transform="translate(64.8 -373.2)"/>
  <path class="cls-1" d="M382.07,436.58l1,1V439l-1.25.93h-1.27l-1-2.09,1.13-1.24Z" transform="translate(64.8 -373.2)"/>
  <path class="cls-1" d="M303.6,472.14v1.36l-1.09,1h-1.45L300,472.32l1.26-1.18h1.41Z" transform="translate(64.8 -373.2)"/>
  <path class="cls-1" d="M416.12,455.66c-2.06.11-3-.5-3.66-2.14a7.48,7.48,0,0,1,.7-7.37,3.51,3.51,0,0,1,2.45-1.06,1.55,1.55,0,0,1,1.49,1.71c0,2.21.1,4.43,0,6.64A7.08,7.08,0,0,1,416.12,455.66Z" transform="translate(64.8 -373.2)"/>
  <path class="cls-1" d="M430.43,455.67c-2,.09-2.93-.51-3.58-2.16a7.51,7.51,0,0,1,.72-7.38,3.37,3.37,0,0,1,2.34-1.06,1.59,1.59,0,0,1,1.58,1.75c0,2.25.1,4.51,0,6.75A6.08,6.08,0,0,1,430.43,455.67Z" transform="translate(64.8 -373.2)"/>
  <path class="cls-1" d="M287.45,455.65c-2,.12-2.8-.32-3.51-1.9a7.43,7.43,0,0,1,.63-7.68,3.35,3.35,0,0,1,2.37-1,1.56,1.56,0,0,1,1.51,1.7c0,2.25.1,4.51,0,6.76A6.47,6.47,0,0,1,287.45,455.65Z" transform="translate(64.8 -373.2)"/>
  <path class="cls-1" d="M248.38,455.62a9.38,9.38,0,0,1-1.06-2.76,45.83,45.83,0,0,1,.17-5.94,1.81,1.81,0,0,1,1.73-1.83,3.54,3.54,0,0,1,2.43,1.08,7.65,7.65,0,0,1,.28,8.2C251.21,455.46,250.13,455.89,248.38,455.62Z" transform="translate(64.8 -373.2)"/>
  <path class="cls-1" d="M234.12,485.21c.23,2.18-.4,3.65-1.76,4.19a1.79,1.79,0,0,1-2.25-.55,1.83,1.83,0,0,1,0-2.42A4.43,4.43,0,0,1,234.12,485.21Z" transform="translate(64.8 -373.2)"/>
  <path class="cls-1" d="M224.48,450.34c-.11,1.1-.15,2.22-.36,3.31a2.33,2.33,0,0,1-2.6,2.09,2.27,2.27,0,0,1-2.55-2,34.11,34.11,0,0,1,0-6.39c.19-1.85,1.24-2.5,2.93-2.36,1.5.12,2.38,1.1,2.48,2.82,0,.84,0,1.68,0,2.52Z" transform="translate(64.8 -373.2)"/>
  <path class="cls-1" d="M267.45,450.27c-.12,1.18-.21,2.37-.38,3.54a2.67,2.67,0,0,1-5,.42,12.77,12.77,0,0,1,0-7.73A2.44,2.44,0,0,1,265,445a2.67,2.67,0,0,1,2.32,2.75c.06.84,0,1.68,0,2.52Z" transform="translate(64.8 -373.2)"/>
  <path class="cls-1" d="M339.92,450.36c-.11,1.1-.16,2.22-.36,3.3a2.32,2.32,0,0,1-2.49,2.07c-1.33,0-2.53-.63-2.63-1.89a43.56,43.56,0,0,1,0-7c.11-1.34,1.41-2,2.88-1.86a2.59,2.59,0,0,1,2.46,2.71c.06.87,0,1.76,0,2.64Z" transform="translate(64.8 -373.2)"/>
  <path class="cls-1" d="M445.76,450.29c-.12,1.14-.17,2.3-.37,3.42a2.25,2.25,0,0,1-2.29,2c-1.2.07-2.28-.22-2.67-1.5a12.85,12.85,0,0,1,0-7.72,2.49,2.49,0,0,1,3-1.49,2.68,2.68,0,0,1,2.18,2.75c.05.84,0,1.68,0,2.52Z" transform="translate(64.8 -373.2)"/>
  <path class="cls-1" d="M272.24,484.87c-.12,1.14-.23,2.29-.35,3.43-.14,1.31-1.1,1.79-2.2,2a2.28,2.28,0,0,1-2.77-1.5,13.35,13.35,0,0,1,0-7.73,2.55,2.55,0,0,1,2.93-1.48,2.68,2.68,0,0,1,2.29,2.65,2.17,2.17,0,0,1,0,.24q0,1.2,0,2.4Z" transform="translate(64.8 -373.2)"/>
  <path class="cls-1" d="M310.39,489.57a12.81,12.81,0,0,1-.31-8.43,2.31,2.31,0,0,1,2.73-1.59,2.35,2.35,0,0,1,2.42,2.34,29,29,0,0,1-.16,6.18c-.3,2.07-2.15,2.8-4,1.84Z" transform="translate(64.8 -373.2)"/>
  <path class="cls-1" d="M301.56,448.46H297c-.21-1.21-.19-2.32.85-3.07a2.4,2.4,0,0,1,2.81,0C301.83,446.08,301.71,447.21,301.56,448.46Z" transform="translate(64.8 -373.2)"/>
  <path class="cls-1" d="M207.73,483H203.2c-.28-1.25-.19-2.38.88-3.12a2.39,2.39,0,0,1,2.79,0C208,480.68,207.87,481.8,207.73,483Z" transform="translate(64.8 -373.2)"/>
  <path class="cls-1" d="M285,483h-4.56c-.23-1.18-.22-2.27.78-3a2.4,2.4,0,0,1,2.89-.06C285.29,480.64,285.12,481.79,285,483Z" transform="translate(64.8 -373.2)"/>
  <path class="cls-1" d="M338.29,483c-.2-1.29-.16-2.44,1-3.14a2.41,2.41,0,0,1,2.81.15c1,.75.88,1.84.77,3Z" transform="translate(64.8 -373.2)"/>
</svg>